<svg width="63" height="19" viewBox="0 0 63 19" fill="none" xmlns="http://www.w3.org/2000/svg">
<g filter="url(#filter0_d_3108_1436)">
<path d="M8.63852 9.72941L4.00002 5.09091L8.63852 0.45242L9.5334 1.33736L6.42616 4.44461H14.2316V5.73722H6.42616L9.5334 8.83949L8.63852 9.72941ZM21.6889 5.24521e-06L24.5227 8.29262H24.6371L27.4709 5.24521e-06H29.1314L25.4674 10.1818H23.6925L20.0284 5.24521e-06H21.6889ZM32.9334 10.3359C32.2175 10.3359 31.5928 10.1719 31.0591 9.84376C30.5255 9.51563 30.1112 9.05659 29.8163 8.46662C29.5213 7.87666 29.3738 7.18727 29.3738 6.39844C29.3738 5.6063 29.5213 4.91359 29.8163 4.32032C30.1112 3.72704 30.5255 3.26634 31.0591 2.93822C31.5928 2.61009 32.2175 2.44603 32.9334 2.44603C33.6493 2.44603 34.2741 2.61009 34.8077 2.93822C35.3413 3.26634 35.7556 3.72704 36.0506 4.32032C36.3456 4.91359 36.4931 5.6063 36.4931 6.39844C36.4931 7.18727 36.3456 7.87666 36.0506 8.46662C35.7556 9.05659 35.3413 9.51563 34.8077 9.84376C34.2741 10.1719 33.6493 10.3359 32.9334 10.3359ZM32.9384 9.08807C33.4024 9.08807 33.7869 8.96544 34.0918 8.72018C34.3967 8.47491 34.6221 8.14844 34.768 7.74077C34.9171 7.3331 34.9917 6.884 34.9917 6.39347C34.9917 5.90626 34.9171 5.45881 34.768 5.05114C34.6221 4.64016 34.3967 4.31037 34.0918 4.0618C33.7869 3.81322 33.4024 3.68893 32.9384 3.68893C32.4711 3.68893 32.0833 3.81322 31.7751 4.0618C31.4701 4.31037 31.2431 4.64016 31.0939 5.05114C30.9481 5.45881 30.8752 5.90626 30.8752 6.39347C30.8752 6.884 30.9481 7.3331 31.0939 7.74077C31.2431 8.14844 31.4701 8.47491 31.7751 8.72018C32.0833 8.96544 32.4711 9.08807 32.9384 9.08807ZM39.6389 5.24521e-06V10.1818H38.1524V5.24521e-06H39.6389ZM45.2033 2.54546V3.73864H41.0322V2.54546H45.2033ZM42.1508 0.715914H43.6373V7.93964C43.6373 8.22799 43.6804 8.44508 43.7665 8.59091C43.8527 8.73343 43.9637 8.83121 44.0996 8.88424C44.2388 8.93395 44.3896 8.95881 44.552 8.95881C44.6714 8.95881 44.7758 8.95053 44.8653 8.93395C44.9547 8.91738 45.0243 8.90412 45.0741 8.89418L45.3425 10.1222C45.2564 10.1553 45.1337 10.1885 44.9746 10.2216C44.8155 10.2581 44.6167 10.2779 44.378 10.2813C43.9869 10.2879 43.6224 10.2183 43.2843 10.0724C42.9462 9.92662 42.6728 9.70124 42.464 9.39631C42.2552 9.09139 42.1508 8.70858 42.1508 8.24787V0.715914ZM49.07 10.3509C48.5861 10.3509 48.1486 10.2614 47.7575 10.0824C47.3664 9.9001 47.0565 9.63661 46.8278 9.29191C46.6024 8.94721 46.4897 8.52463 46.4897 8.02415C46.4897 7.59328 46.5726 7.23864 46.7383 6.96023C46.904 6.68182 47.1277 6.46142 47.4095 6.29901C47.6912 6.13661 48.0061 6.01397 48.3541 5.93111C48.7021 5.84825 49.0567 5.78528 49.418 5.74219C49.8754 5.68916 50.2466 5.64608 50.5316 5.61293C50.8167 5.57647 51.0238 5.51847 51.1531 5.43893C51.2823 5.35938 51.347 5.23012 51.347 5.05114V5.01634C51.347 4.58215 51.2243 4.24574 50.9791 4.00711C50.7371 3.76847 50.3759 3.64915 49.8953 3.64915C49.3948 3.64915 49.0004 3.76019 48.712 3.98225C48.427 4.201 48.2298 4.44461 48.1204 4.71307L46.7234 4.39489C46.8891 3.93088 47.1311 3.55635 47.4492 3.27131C47.7707 2.98296 48.1403 2.77415 48.5579 2.64489C48.9755 2.51232 49.4147 2.44603 49.8754 2.44603C50.1803 2.44603 50.5035 2.48249 50.8448 2.5554C51.1895 2.62501 51.511 2.75427 51.8093 2.94319C52.1109 3.13211 52.3579 3.40223 52.5501 3.75356C52.7423 4.10157 52.8384 4.55398 52.8384 5.1108V10.1818H51.3867V9.13779H51.3271C51.231 9.33002 51.0868 9.51894 50.8946 9.70455C50.7023 9.89016 50.4554 10.0443 50.1538 10.1669C49.8522 10.2895 49.4909 10.3509 49.07 10.3509ZM49.3931 9.15768C49.8041 9.15768 50.1554 9.07647 50.4471 8.91407C50.7421 8.75166 50.9658 8.53954 51.1183 8.2777C51.2741 8.01255 51.3519 7.72917 51.3519 7.42756V6.44319C51.2989 6.49622 51.1962 6.54593 51.0437 6.59233C50.8946 6.63542 50.7239 6.67354 50.5316 6.70668C50.3394 6.73651 50.1521 6.76468 49.9698 6.7912C49.7875 6.8144 49.6351 6.83429 49.5125 6.85086C49.2241 6.88732 48.9606 6.94863 48.722 7.03481C48.4866 7.12098 48.2977 7.24527 48.1552 7.40768C48.016 7.56677 47.9464 7.77889 47.9464 8.04404C47.9464 8.41194 48.0823 8.69035 48.3541 8.87927C48.6259 9.06487 48.9722 9.15768 49.3931 9.15768ZM54.8184 10.1818V2.54546H56.2552V3.75853H56.3347C56.4739 3.34754 56.7192 3.02439 57.0705 2.78907C57.4252 2.55043 57.8262 2.43111 58.2736 2.43111C58.3664 2.43111 58.4758 2.43443 58.6018 2.44106C58.731 2.44769 58.8321 2.45597 58.905 2.46591V3.88779C58.8454 3.87122 58.7393 3.85299 58.5868 3.8331C58.4344 3.8099 58.2819 3.7983 58.1295 3.7983C57.7781 3.7983 57.4649 3.87287 57.1898 4.02202C56.9181 4.16786 56.7026 4.37169 56.5435 4.63353C56.3844 4.89205 56.3049 5.18703 56.3049 5.51847V10.1818H54.8184Z" fill="#CA3884"/>
</g>
<defs>
<filter id="filter0_d_3108_1436" x="0" y="0" width="62.905" height="18.3509" filterUnits="userSpaceOnUse" color-interpolation-filters="sRGB">
<feFlood flood-opacity="0" result="BackgroundImageFix"/>
<feColorMatrix in="SourceAlpha" type="matrix" values="0 0 0 0 0 0 0 0 0 0 0 0 0 0 0 0 0 0 127 0" result="hardAlpha"/>
<feOffset dy="4"/>
<feGaussianBlur stdDeviation="2"/>
<feComposite in2="hardAlpha" operator="out"/>
<feColorMatrix type="matrix" values="0 0 0 0 0 0 0 0 0 0 0 0 0 0 0 0 0 0 0.25 0"/>
<feBlend mode="normal" in2="BackgroundImageFix" result="effect1_dropShadow_3108_1436"/>
<feBlend mode="normal" in="SourceGraphic" in2="effect1_dropShadow_3108_1436" result="shape"/>
</filter>
</defs>
</svg>
